<svg width="140" height="39" viewBox="0 0 140 39" fill="none" xmlns="http://www.w3.org/2000/svg">
<path d="M44.04 29.8636V8.86357H52.77C54.23 8.86357 55.46 9.09357 56.46 9.55357C57.46 10.0136 58.22 10.6536 58.74 11.4736C59.26 12.2736 59.52 13.2136 59.52 14.2936C59.52 15.3336 59.29 16.2136 58.83 16.9336C58.37 17.6536 57.76 18.2136 57 18.6136C56.26 18.9936 55.44 19.2136 54.54 19.2736L55.02 18.9436C55.98 18.9836 56.83 19.2436 57.57 19.7236C58.33 20.2036 58.92 20.8336 59.34 21.6136C59.78 22.3736 60 23.2136 60 24.1336C60 25.2536 59.73 26.2536 59.19 27.1336C58.65 27.9936 57.86 28.6636 56.82 29.1436C55.8 29.6236 54.55 29.8636 53.07 29.8636H44.04ZM48.24 26.4436H52.41C53.47 26.4436 54.29 26.2036 54.87 25.7236C55.45 25.2236 55.74 24.5236 55.74 23.6236C55.74 22.7236 55.44 22.0136 54.84 21.4936C54.24 20.9736 53.41 20.7136 52.35 20.7136H48.24V26.4436ZM48.24 17.5936H52.08C53.1 17.5936 53.88 17.3636 54.42 16.9036C54.96 16.4236 55.23 15.7536 55.23 14.8936C55.23 14.0536 54.96 13.4036 54.42 12.9436C53.88 12.4636 53.09 12.2236 52.05 12.2236H48.24V17.5936ZM63.2888 29.8636V14.7436H67.4888V29.8636H63.2888ZM65.3888 12.7936C64.6288 12.7936 64.0088 12.5736 63.5288 12.1336C63.0488 11.6736 62.8088 11.1136 62.8088 10.4536C62.8088 9.77357 63.0488 9.21357 63.5288 8.77357C64.0088 8.33357 64.6288 8.11357 65.3888 8.11357C66.1488 8.11357 66.7688 8.33357 67.2488 8.77357C67.7288 9.21357 67.9688 9.77357 67.9688 10.4536C67.9688 11.1136 67.7288 11.6736 67.2488 12.1336C66.7688 12.5736 66.1488 12.7936 65.3888 12.7936ZM71.5191 29.8636V14.7436H75.2091L75.5091 17.2036C75.9691 16.3636 76.6191 15.6836 77.4591 15.1636C78.3191 14.6436 79.3491 14.3836 80.5491 14.3836C81.7891 14.3836 82.8391 14.6536 83.6991 15.1936C84.5591 15.7136 85.2091 16.4736 85.6491 17.4736C86.1091 18.4736 86.3391 19.7036 86.3391 21.1636V29.8636H82.1691V21.5536C82.1691 20.3936 81.9191 19.5036 81.4191 18.8836C80.9391 18.2436 80.1691 17.9236 79.1091 17.9236C78.4691 17.9236 77.8891 18.0836 77.3691 18.4036C76.8491 18.7036 76.4391 19.1436 76.1391 19.7236C75.8591 20.2836 75.7191 20.9736 75.7191 21.7936V29.8636H71.5191ZM95.7919 30.2236C94.5719 30.2236 93.5219 29.9736 92.6419 29.4736C91.7819 28.9536 91.1219 28.1936 90.6619 27.1936C90.2019 26.1936 89.9719 24.9636 89.9719 23.5036V14.7436H94.1719V23.0836C94.1719 24.2636 94.4119 25.1636 94.8919 25.7836C95.3919 26.3836 96.1619 26.6836 97.2019 26.6836C97.8619 26.6836 98.4519 26.5336 98.9719 26.2336C99.4919 25.9336 99.8919 25.5036 100.172 24.9436C100.472 24.3636 100.622 23.6536 100.622 22.8136V14.7436H104.822V29.8636H101.132L100.802 27.4336C100.362 28.2736 99.7119 28.9536 98.8519 29.4736C98.0119 29.9736 96.9919 30.2236 95.7919 30.2236ZM107.795 29.8636V26.5036L115.325 18.2236H107.885V14.7436H120.155V18.1336L112.535 26.3836H120.305V29.8636H107.795ZM128.68 30.2236C127.44 30.2236 126.4 30.0236 125.56 29.6236C124.74 29.2036 124.13 28.6536 123.73 27.9736C123.35 27.2736 123.16 26.5036 123.16 25.6636C123.16 24.7636 123.39 23.9636 123.85 23.2636C124.31 22.5636 125.02 22.0136 125.98 21.6136C126.94 21.2136 128.14 21.0136 129.58 21.0136H133.3C133.3 20.2936 133.2 19.7036 133 19.2436C132.82 18.7636 132.52 18.4036 132.1 18.1636C131.7 17.9236 131.16 17.8036 130.48 17.8036C129.74 17.8036 129.11 17.9636 128.59 18.2836C128.09 18.6036 127.78 19.0836 127.66 19.7236H123.58C123.7 18.6436 124.06 17.7136 124.66 16.9336C125.26 16.1336 126.06 15.5136 127.06 15.0736C128.08 14.6136 129.23 14.3836 130.51 14.3836C131.93 14.3836 133.16 14.6236 134.2 15.1036C135.26 15.5836 136.07 16.2736 136.63 17.1736C137.21 18.0736 137.5 19.1836 137.5 20.5036V29.8636H133.96L133.48 27.5836C133.28 27.9836 133.02 28.3436 132.7 28.6636C132.4 28.9836 132.05 29.2636 131.65 29.5036C131.25 29.7236 130.8 29.8936 130.3 30.0136C129.82 30.1536 129.28 30.2236 128.68 30.2236ZM129.7 26.9836C130.2 26.9836 130.65 26.9036 131.05 26.7436C131.45 26.5636 131.79 26.3136 132.07 25.9936C132.35 25.6736 132.58 25.3136 132.76 24.9136C132.94 24.4936 133.06 24.0436 133.12 23.5636V23.5336H130.09C129.51 23.5336 129.03 23.6136 128.65 23.7736C128.29 23.9136 128.02 24.1236 127.84 24.4036C127.66 24.6636 127.57 24.9636 127.57 25.3036C127.57 25.6636 127.66 25.9736 127.84 26.2336C128.02 26.4936 128.27 26.6836 128.59 26.8036C128.91 26.9236 129.28 26.9836 129.7 26.9836Z" fill="black"/>
<path d="M15.5134 35.5588C15.5134 34.7246 15.5136 33.8903 15.5131 33.056C15.513 32.9408 15.5503 32.8215 15.3554 32.8026C13.6177 32.6343 11.9855 32.082 10.4119 31.3623C5.49365 29.113 2.25673 25.3704 0.647644 20.2181C0.187069 18.7433 0.000866731 17.2186 1.74148e-07 15.6718C-0.000108145 15.4475 0.0502615 15.3628 0.298963 15.366C1.46416 15.3815 2.62978 15.3812 3.79498 15.3694C4.05365 15.3668 4.09556 15.4635 4.11235 15.6994C4.35347 19.0931 5.45335 22.1484 7.86314 24.6088C9.98285 26.773 12.5246 28.1764 15.576 28.6032C18.0933 28.9552 20.5174 28.6659 22.8064 27.595C26.9995 25.6332 29.6529 22.3928 30.6354 17.8332C30.7923 17.1048 30.8665 16.3649 30.8701 15.6199C30.8711 15.4259 30.9308 15.3659 31.1287 15.3673C32.3342 15.376 33.5398 15.3756 34.7453 15.3662C34.9447 15.3647 34.995 15.4292 34.9982 15.6195C35.0269 17.3467 34.7144 19.0211 34.1588 20.6446C32.4283 25.7021 29.1227 29.3449 24.2501 31.5403C22.8261 32.1819 21.3212 32.5746 19.7658 32.7496C19.5432 32.7746 19.4698 32.8507 19.4721 33.082C19.488 34.7306 19.4823 36.3794 19.5017 38.028C19.5048 38.296 19.4249 38.3535 19.1695 38.3724C18.0132 38.4583 16.8602 38.3337 15.7058 38.3503C15.4924 38.3535 15.4874 38.2498 15.4882 38.0919C15.4923 37.2474 15.4901 36.403 15.4901 35.5586C15.498 35.5588 15.5057 35.5588 15.5134 35.5588Z" fill="#F1663E"/>
<path d="M15.7333 0C15.7333 4.66901 15.7333 9.2674 15.7333 13.8655C15.6347 13.9008 15.5761 13.8274 15.5167 13.7849C14.1001 12.7702 12.5026 12.2276 10.8014 11.93C9.1231 11.6365 7.46614 11.2297 5.78144 10.9656C5.3539 10.8986 4.93763 10.758 4.64235 10.4088C4.20106 9.88709 4.21785 9.2713 4.67777 8.74324C4.88986 8.49973 5.14236 8.30053 5.39507 8.10166C8.68549 5.51336 11.9753 2.9243 15.266 0.336549C15.3985 0.232453 15.5396 0.139082 15.7333 0Z" fill="#F1663E"/>
<path d="M19.2531 0.0547028C19.5466 0.151865 19.7617 0.332434 19.9801 0.506612C22.9627 2.88499 25.9436 5.26531 28.9286 7.64054C29.3445 7.97146 29.7846 8.27021 30.1688 8.64228C30.9951 9.44266 30.769 10.4916 29.6729 10.8542C28.9554 11.0915 28.1979 11.1372 27.4584 11.2683C25.5729 11.6026 23.6812 11.9064 21.8609 12.5308C20.936 12.8481 20.0618 13.2615 19.2531 13.9008C19.2531 9.26165 19.2531 4.66944 19.2531 0.0547028Z" fill="#F1663E"/>
<path d="M19.2252 22.6983C19.1879 21.7237 19.1784 20.7478 19.3426 19.7829C19.733 17.4881 21.4951 15.7499 23.7914 15.3982C24.409 15.3036 25.033 15.3398 25.6552 15.3538C26.2473 15.3671 26.8397 15.3771 27.4316 15.3701C27.6238 15.3678 27.6971 15.4048 27.677 15.6137C27.2533 20.0053 25.0144 23.062 20.9492 24.7701C20.4884 24.9637 20.0037 25.0945 19.5031 25.1674C19.2759 25.2005 19.2215 25.1341 19.2231 24.9279C19.2285 24.1849 19.2252 23.4416 19.2252 22.6983Z" fill="#F1663E"/>
<path d="M15.6987 22.6714C15.6987 23.4456 15.6925 24.2198 15.7028 24.9939C15.7056 25.2004 15.6491 25.2474 15.4455 25.212C14.3507 25.0219 13.3608 24.5693 12.4152 24.0099C9.78116 22.4517 8.14532 20.1716 7.51241 17.1755C7.40019 16.6442 7.33725 16.1054 7.35047 15.5601C7.35307 15.451 7.32382 15.3427 7.511 15.3591C8.62496 15.4564 9.73913 15.3294 10.8533 15.3512C12.0004 15.3736 12.9819 15.822 13.8205 16.5771C15.0426 17.6775 15.6548 19.0662 15.6753 20.7116C15.6834 21.3649 15.6766 22.0182 15.6766 22.6715C15.6839 22.6714 15.6913 22.6714 15.6987 22.6714Z" fill="#F1663E"/>
</svg>
