<svg width="140" height="39" viewBox="0 0 140 39" fill="none" xmlns="http://www.w3.org/2000/svg">
<path d="M44.04 28V7H52.77C54.23 7 55.46 7.23 56.46 7.69C57.46 8.15 58.22 8.79 58.74 9.61C59.26 10.41 59.52 11.35 59.52 12.43C59.52 13.47 59.29 14.35 58.83 15.07C58.37 15.79 57.76 16.35 57 16.75C56.26 17.13 55.44 17.35 54.54 17.41L55.02 17.08C55.98 17.12 56.83 17.38 57.57 17.86C58.33 18.34 58.92 18.97 59.34 19.75C59.78 20.51 60 21.35 60 22.27C60 23.39 59.73 24.39 59.19 25.27C58.65 26.13 57.86 26.8 56.82 27.28C55.8 27.76 54.55 28 53.07 28H44.04ZM48.24 24.58H52.41C53.47 24.58 54.29 24.34 54.87 23.86C55.45 23.36 55.74 22.66 55.74 21.76C55.74 20.86 55.44 20.15 54.84 19.63C54.24 19.11 53.41 18.85 52.35 18.85H48.24V24.58ZM48.24 15.73H52.08C53.1 15.73 53.88 15.5 54.42 15.04C54.96 14.56 55.23 13.89 55.23 13.03C55.23 12.19 54.96 11.54 54.42 11.08C53.88 10.6 53.09 10.36 52.05 10.36H48.24V15.73ZM63.2888 28V12.88H67.4888V28H63.2888ZM65.3888 10.93C64.6288 10.93 64.0088 10.71 63.5288 10.27C63.0488 9.81 62.8088 9.25 62.8088 8.59C62.8088 7.91 63.0488 7.35 63.5288 6.91C64.0088 6.47 64.6288 6.25 65.3888 6.25C66.1488 6.25 66.7688 6.47 67.2488 6.91C67.7288 7.35 67.9688 7.91 67.9688 8.59C67.9688 9.25 67.7288 9.81 67.2488 10.27C66.7688 10.71 66.1488 10.93 65.3888 10.93ZM71.5191 28V12.88H75.2091L75.5091 15.34C75.9691 14.5 76.6191 13.82 77.4591 13.3C78.3191 12.78 79.3491 12.52 80.5491 12.52C81.7891 12.52 82.8391 12.79 83.6991 13.33C84.5591 13.85 85.2091 14.61 85.6491 15.61C86.1091 16.61 86.3391 17.84 86.3391 19.3V28H82.1691V19.69C82.1691 18.53 81.9191 17.64 81.4191 17.02C80.9391 16.38 80.1691 16.06 79.1091 16.06C78.4691 16.06 77.8891 16.22 77.3691 16.54C76.8491 16.84 76.4391 17.28 76.1391 17.86C75.8591 18.42 75.7191 19.11 75.7191 19.93V28H71.5191ZM95.7919 28.36C94.5719 28.36 93.5219 28.11 92.6419 27.61C91.7819 27.09 91.1219 26.33 90.6619 25.33C90.2019 24.33 89.9719 23.1 89.9719 21.64V12.88H94.1719V21.22C94.1719 22.4 94.4119 23.3 94.8919 23.92C95.3919 24.52 96.1619 24.82 97.2019 24.82C97.8619 24.82 98.4519 24.67 98.9719 24.37C99.4919 24.07 99.8919 23.64 100.172 23.08C100.472 22.5 100.622 21.79 100.622 20.95V12.88H104.822V28H101.132L100.802 25.57C100.362 26.41 99.7119 27.09 98.8519 27.61C98.0119 28.11 96.9919 28.36 95.7919 28.36ZM107.795 28V24.64L115.325 16.36H107.885V12.88H120.155V16.27L112.535 24.52H120.305V28H107.795ZM128.68 28.36C127.44 28.36 126.4 28.16 125.56 27.76C124.74 27.34 124.13 26.79 123.73 26.11C123.35 25.41 123.16 24.64 123.16 23.8C123.16 22.9 123.39 22.1 123.85 21.4C124.31 20.7 125.02 20.15 125.98 19.75C126.94 19.35 128.14 19.15 129.58 19.15H133.3C133.3 18.43 133.2 17.84 133 17.38C132.82 16.9 132.52 16.54 132.1 16.3C131.7 16.06 131.16 15.94 130.48 15.94C129.74 15.94 129.11 16.1 128.59 16.42C128.09 16.74 127.78 17.22 127.66 17.86H123.58C123.7 16.78 124.06 15.85 124.66 15.07C125.26 14.27 126.06 13.65 127.06 13.21C128.08 12.75 129.23 12.52 130.51 12.52C131.93 12.52 133.16 12.76 134.2 13.24C135.26 13.72 136.07 14.41 136.63 15.31C137.21 16.21 137.5 17.32 137.5 18.64V28H133.96L133.48 25.72C133.28 26.12 133.02 26.48 132.7 26.8C132.4 27.12 132.05 27.4 131.65 27.64C131.25 27.86 130.8 28.03 130.3 28.15C129.82 28.29 129.28 28.36 128.68 28.36ZM129.7 25.12C130.2 25.12 130.65 25.04 131.05 24.88C131.45 24.7 131.79 24.45 132.07 24.13C132.35 23.81 132.58 23.45 132.76 23.05C132.94 22.63 133.06 22.18 133.12 21.7V21.67H130.09C129.51 21.67 129.03 21.75 128.65 21.91C128.29 22.05 128.02 22.26 127.84 22.54C127.66 22.8 127.57 23.1 127.57 23.44C127.57 23.8 127.66 24.11 127.84 24.37C128.02 24.63 128.27 24.82 128.59 24.94C128.91 25.06 129.28 25.12 129.7 25.12Z" fill="white"/>
<path d="M15.5134 35.6959C15.5134 34.8616 15.5136 34.0273 15.5131 33.193C15.513 33.0778 15.5503 32.9585 15.3554 32.9397C13.6177 32.7713 11.9855 32.219 10.4119 31.4993C5.49365 29.25 2.25673 25.5074 0.647644 20.3551C0.187069 18.8803 0.000866731 17.3556 1.74148e-07 15.8088C-0.000108145 15.5845 0.0502615 15.4998 0.298963 15.503C1.46416 15.5185 2.62978 15.5182 3.79498 15.5064C4.05365 15.5038 4.09556 15.6005 4.11235 15.8364C4.35347 19.2301 5.45335 22.2855 7.86314 24.7458C9.98285 26.91 12.5246 28.3134 15.576 28.7402C18.0933 29.0923 20.5174 28.8029 22.8064 27.732C26.9995 25.7702 29.6529 22.5298 30.6354 17.9702C30.7923 17.2418 30.8665 16.5019 30.8701 15.7569C30.8711 15.5629 30.9308 15.5029 31.1287 15.5043C32.3342 15.513 33.5398 15.5127 34.7453 15.5032C34.9447 15.5017 34.995 15.5662 34.9982 15.7565C35.0269 17.4838 34.7144 19.1582 34.1588 20.7817C32.4283 25.8391 29.1227 29.4819 24.2501 31.6773C22.8261 32.3189 21.3212 32.7117 19.7658 32.8866C19.5432 32.9116 19.4698 32.9878 19.4721 33.219C19.488 34.8676 19.4823 36.5164 19.5017 38.165C19.5048 38.433 19.4249 38.4905 19.1695 38.5095C18.0132 38.5954 16.8602 38.4707 15.7058 38.4874C15.4924 38.4905 15.4874 38.3868 15.4882 38.2289C15.4923 37.3845 15.4901 36.54 15.4901 35.6956C15.498 35.6959 15.5057 35.6959 15.5134 35.6959Z" fill="#F1663E"/>
<path d="M15.7333 0.136719C15.7333 4.80573 15.7333 9.40411 15.7333 14.0022C15.6348 14.0375 15.5762 13.9642 15.5167 13.9216C14.1001 12.907 12.5026 12.3643 10.8014 12.0667C9.12312 11.7732 7.46615 11.3664 5.78146 11.1023C5.35392 11.0353 4.93765 10.8947 4.64237 10.5455C4.20107 10.0238 4.21786 9.40801 4.67779 8.87996C4.88988 8.63645 5.14237 8.43725 5.39508 8.23838C8.68551 5.65008 11.9753 3.06102 15.266 0.473267C15.3985 0.369172 15.5397 0.275801 15.7333 0.136719Z" fill="#F1663E"/>
<path d="M19.2531 0.191406C19.5466 0.288569 19.7617 0.469137 19.9801 0.643315C22.9627 3.02169 25.9436 5.40202 28.9286 7.77725C29.3444 8.10816 29.7845 8.40691 30.1687 8.77899C30.9951 9.57936 30.7689 10.6283 29.6729 10.9909C28.9553 11.2282 28.1979 11.2739 27.4584 11.405C25.5729 11.7393 23.6812 12.0431 21.8608 12.6676C20.936 12.9848 20.0618 13.3982 19.2531 14.0375C19.2531 9.39836 19.2531 4.80615 19.2531 0.191406Z" fill="#F1663E"/>
<path d="M19.2252 22.8347C19.1878 21.8602 19.1784 20.8842 19.3426 19.9193C19.733 17.6246 21.495 15.8864 23.7914 15.5346C24.4089 15.4401 25.033 15.4763 25.6552 15.4902C26.2472 15.5036 26.8396 15.5135 27.4316 15.5066C27.6238 15.5043 27.6971 15.5413 27.677 15.7502C27.2533 20.1418 25.0143 23.1985 20.9492 24.9066C20.4884 25.1001 20.0037 25.231 19.503 25.3039C19.2759 25.3369 19.2215 25.2705 19.223 25.0644C19.2285 24.3213 19.2252 23.578 19.2252 22.8347Z" fill="#F1663E"/>
<path d="M15.6987 22.8082C15.6987 23.5823 15.6925 24.3566 15.7028 25.1306C15.7056 25.3372 15.649 25.3841 15.4455 25.3488C14.3507 25.1587 13.3608 24.706 12.4152 24.1467C9.78115 22.5885 8.14531 20.3084 7.5124 17.3122C7.40018 16.7809 7.33725 16.2421 7.35046 15.6969C7.35306 15.5878 7.32382 15.4795 7.51099 15.4958C8.62495 15.5932 9.73913 15.4661 10.8533 15.4879C12.0004 15.5103 12.9819 15.9588 13.8205 16.7139C15.0426 17.8143 15.6548 19.203 15.6753 20.8483C15.6834 21.5016 15.6766 22.155 15.6766 22.8083C15.6839 22.8082 15.6913 22.8082 15.6987 22.8082Z" fill="#F1663E"/>
</svg>
