<svg width="40" height="40" viewBox="0 0 40 40" fill="none" xmlns="http://www.w3.org/2000/svg">
<g clip-path="url(#clip0_72_1050)">
<path d="M37.5041 28.886C41.3694 23.4628 40.7785 16.0327 35.499 11.1928C33.0867 8.98148 30.0115 7.60484 26.6895 7.22039C26.6688 7.19492 26.6477 7.16969 26.6245 7.14555C23.7345 4.14359 19.5827 2.42188 15.2334 2.42188C6.95695 2.42188 0 8.58852 0 16.4844C0 19.2527 0.859922 21.9066 2.49344 24.1985L0.211484 31.363C0.0680469 31.8134 0.209141 32.3056 0.569219 32.6116C0.929922 32.9182 1.43875 32.9771 1.85914 32.7633L8.79875 29.2346C10.2239 29.8483 11.7352 30.2509 13.3002 30.4341C16.3191 33.6088 20.4934 35.2344 24.7641 35.2344C26.9841 35.2344 29.196 34.782 31.1984 33.922L38.1384 37.4509C38.3064 37.5363 38.4884 37.5781 38.6692 37.5781C39.4601 37.5781 40.027 36.8074 39.786 36.0505L37.5041 28.886ZM9.27172 26.8766C8.94352 26.7208 8.56172 26.7259 8.23789 26.8906L3.29516 29.4039L4.90922 24.3363C5.02672 23.9673 4.95445 23.5641 4.71602 23.2591C3.16398 21.2723 2.34359 18.9298 2.34359 16.4844C2.34359 10.0227 8.12594 4.76562 15.2334 4.76562C18.0956 4.76562 20.851 5.63273 23.0861 7.19422C15.5589 7.95109 9.53062 13.8303 9.53062 21.1719C9.53062 23.4553 10.1159 25.6536 11.2195 27.6231C10.5513 27.4241 9.90063 27.1753 9.27172 26.8766ZM31.7596 31.578C31.4405 31.4158 31.0584 31.406 30.7258 31.5641C28.8988 32.432 26.8373 32.8906 24.7641 32.8906C17.6566 32.8906 11.8742 27.6336 11.8742 21.1719C11.8742 14.7102 17.6566 9.45312 24.7641 9.45312C31.8716 9.45312 37.6539 14.7102 37.6539 21.1719C37.6539 23.6173 36.8335 25.9598 35.2814 27.9465C35.043 28.2516 34.9708 28.6547 35.0882 29.0237L36.7023 34.0913L31.7596 31.578Z" fill="#F1663E"/>
<path d="M19.9988 22.3438C20.646 22.3438 21.1707 21.8191 21.1707 21.1719C21.1707 20.5247 20.646 20 19.9988 20C19.3516 20 18.8269 20.5247 18.8269 21.1719C18.8269 21.8191 19.3516 22.3438 19.9988 22.3438Z" fill="#F1663E"/>
<path d="M24.686 22.3438C25.3332 22.3438 25.8579 21.8191 25.8579 21.1719C25.8579 20.5247 25.3332 20 24.686 20C24.0388 20 23.5142 20.5247 23.5142 21.1719C23.5142 21.8191 24.0388 22.3438 24.686 22.3438Z" fill="#F1663E"/>
<path d="M29.3733 22.3438C30.0205 22.3438 30.5452 21.8191 30.5452 21.1719C30.5452 20.5247 30.0205 20 29.3733 20C28.7261 20 28.2014 20.5247 28.2014 21.1719C28.2014 21.8191 28.7261 22.3438 29.3733 22.3438Z" fill="#F1663E"/>
</g>
<defs>
<clipPath id="clip0_72_1050">
<rect width="40" height="40" fill="white"/>
</clipPath>
</defs>
</svg>
