<svg width="59" height="59" viewBox="0 0 59 59" fill="none" xmlns="http://www.w3.org/2000/svg">
<g clip-path="url(#clip0_65_4742)">
<path d="M41.7634 59.1153H17.2313C13.3831 59.1153 9.86643 57.1679 7.82401 53.9064C5.7816 50.645 5.56565 46.6313 7.24565 43.1694L22.6959 14.5107C22.9148 14.1043 23.3392 13.8512 23.8008 13.8512H32.9074C33.3414 13.8512 33.7453 14.0756 33.9739 14.4445L51.4657 42.6282C51.4779 42.6478 51.4895 42.6674 51.5006 42.6877C53.4014 46.1613 53.3309 50.2686 51.3119 53.6748C49.2928 57.0815 45.7237 59.1153 41.7634 59.1153ZM24.5503 16.3618L9.47993 44.3132C8.20406 46.9446 8.37138 50.0503 9.95193 52.5739C11.5324 55.098 14.2536 56.6046 17.2313 56.6046H41.7633C44.8274 56.6046 47.59 55.0305 49.1524 52.3949C50.7086 49.7684 50.7688 46.6038 49.3136 43.9221L32.2093 16.3618H24.5503Z" fill="#F1663E"/>
<path d="M32.9074 16.3618H23.8008C23.304 16.3618 22.8542 16.0687 22.6531 15.6146C20.4145 10.5578 18.4933 6.58402 16.7789 3.46658C16.5953 3.13252 16.5732 2.73346 16.7191 2.3813C16.8646 2.02915 17.1625 1.7625 17.5285 1.65613C19.1617 1.18137 20.8421 0.811236 22.5231 0.555877C23.2095 0.453548 23.8486 0.922783 23.9528 1.60797C24.057 2.2935 23.5859 2.93374 22.9007 3.03768C21.8413 3.19889 20.782 3.4085 19.7367 3.66409C21.2001 6.43767 22.8073 9.79272 24.6167 13.851H32.0916C33.9023 9.7903 35.5094 6.43525 36.9719 3.66409C35.9287 3.40908 34.8713 3.19981 33.814 3.0386C33.1287 2.93443 32.6574 2.29419 32.7616 1.60889C32.8664 0.923013 33.5148 0.454355 34.1916 0.556798C35.871 0.812388 37.5493 1.18229 39.1798 1.65613C39.5457 1.7625 39.8436 2.02915 39.9895 2.3813C40.1354 2.73346 40.1133 3.13252 39.9301 3.46658C38.2174 6.58033 36.2959 10.5541 34.0555 15.6146C33.8546 16.0687 33.404 16.3618 32.9074 16.3618Z" fill="#F1663E"/>
<path d="M48.4599 26.7608C47.7667 26.7608 47.2045 26.1987 47.2045 25.5054C47.2045 20.4636 43.1027 16.3618 38.0606 16.3618H23.801C23.1078 16.3618 22.5457 15.7997 22.5457 15.1064C22.5457 14.4132 23.1078 13.8511 23.801 13.8511H38.0607C44.4869 13.8511 49.7153 19.0793 49.7153 25.5054C49.7153 26.1987 49.1532 26.7608 48.4599 26.7608Z" fill="#F1663E"/>
<path d="M32.7707 59.054H26.1444C25.4512 59.054 24.8891 58.4919 24.8891 57.7986V42.1947H20.1666C19.6944 42.1947 19.2623 41.9299 19.0481 41.5089C18.8338 41.0884 18.8737 40.5827 19.1517 40.2008L28.5163 27.3313C28.7529 27.0062 29.1222 26.8021 29.5335 26.8146C29.9355 26.8152 30.3135 27.0087 30.5488 27.3347L39.8472 40.2045C40.123 40.5864 40.1622 41.0908 39.9477 41.5107C39.7325 41.9306 39.301 42.1947 38.8297 42.1947H34.026V57.7986C34.0261 58.4919 33.464 59.054 32.7707 59.054ZM27.3998 56.5434H31.5154V40.9395C31.5154 40.2462 32.0775 39.6841 32.7707 39.6841H36.3742L29.5276 30.2085L22.6325 39.6841H26.1444C26.8377 39.6841 27.3998 40.2462 27.3998 40.9395V56.5434Z" fill="#F1663E"/>
<path d="M28.3542 2.62596C29.0476 2.62596 29.6096 2.06392 29.6096 1.3706C29.6096 0.67728 29.0476 0.115234 28.3542 0.115234C27.6609 0.115234 27.0989 0.67728 27.0989 1.3706C27.0989 2.06392 27.6609 2.62596 28.3542 2.62596Z" fill="#F1663E"/>
</g>
<defs>
<clipPath id="clip0_65_4742">
<rect width="59" height="59" fill="white"/>
</clipPath>
</defs>
</svg>
