<svg xmlns="http://www.w3.org/2000/svg" width="67" height="67" viewBox="0 0 67 67" fill="none">
                                            <g clip-path="url(#clip0_69_92)">
                                                <path d="M30.0087 28.6111C30.0087 29.1895 30.4771 29.658 31.0555 29.658C31.6339 29.658 32.1024 29.1895 32.1024 28.6111C32.1024 25.6589 29.7038 23.204 26.5749 22.7499V20.7125C26.5749 20.1341 26.1064 19.6656 25.528 19.6656C24.9496 19.6656 24.4812 20.1341 24.4812 20.7125V22.7499C21.3523 23.204 18.9537 25.6589 18.9537 28.6111C18.9537 30.6329 19.693 32.1456 21.1508 33.1075C22.1244 33.75 23.2969 34.0797 24.4799 34.3454V42.125C22.513 41.7193 21.0461 40.1987 21.0461 38.3876C21.0461 37.8092 20.5776 37.3408 19.9992 37.3408C19.4208 37.3408 18.9524 37.8092 18.9524 38.3876C18.9524 41.3398 21.351 43.7947 24.4799 44.2488V46.2863C24.4799 46.8647 24.9483 47.3332 25.5267 47.3332C26.1051 47.3332 26.5736 46.8647 26.5736 46.2863V44.2488C29.7025 43.7947 32.1011 41.3398 32.1011 38.3876C32.1011 36.3659 31.3618 34.8531 29.904 33.8913C28.9304 33.2488 27.7579 32.919 26.5749 32.6534V24.8738C28.5417 25.2795 30.0087 26.8013 30.0087 28.6111ZM21.0487 28.6111C21.0487 26.8013 22.5157 25.2795 24.4825 24.8738V32.1914C22.2736 31.6458 21.0487 30.9404 21.0487 28.6111ZM30.0087 38.3889C30.0087 40.1987 28.5417 41.7206 26.5749 42.1263V34.8086C28.7838 35.3543 30.0087 36.0596 30.0087 38.3889ZM66.9019 39.9121C66.7304 39.5431 66.3601 39.3063 65.9531 39.3063H59.5737V16.9882C59.5737 16.4098 59.1053 15.9413 58.5269 15.9413H44.0774C39.2657 10.8522 32.5343 7.94189 25.5294 7.94189C11.4515 7.94189 0 19.4078 0 33.5013C0 47.5936 11.4515 59.0582 25.528 59.0582C32.5002 59.0582 39.1466 56.2028 43.9517 51.187L50.2736 58.6865C50.4725 58.9221 50.7656 59.0582 51.0744 59.0582C51.3832 59.0582 51.6764 58.9221 51.8753 58.6852L66.754 41.0271C67.0157 40.7169 67.0746 40.2812 66.9019 39.9121ZM35.3962 41.0284L39.2539 45.6085C35.7756 49.5643 30.8226 51.8177 25.5294 51.8177C15.4427 51.8177 7.23522 43.6011 7.23522 33.5027C7.23522 23.4042 15.4414 15.1863 25.528 15.1863C33.0263 15.1863 39.8519 19.8645 42.5751 26.8445V39.3063H36.1957C35.7887 39.3063 35.4184 39.5418 35.247 39.9121C35.0755 40.2825 35.1331 40.7169 35.3962 41.0284ZM25.528 56.9644C12.607 56.9644 2.09375 46.4394 2.09375 33.5013C2.09375 20.562 12.607 10.0343 25.528 10.0343C31.9676 10.0343 38.1573 12.7143 42.5751 17.4004V22.2972C41.171 20.1576 39.3717 18.2929 37.2413 16.7945C33.7997 14.3723 29.7496 13.0925 25.528 13.0925C14.2859 13.0925 5.14016 22.2488 5.14016 33.5013C5.14016 44.7539 14.2859 53.9102 25.528 53.9102C31.3225 53.9102 36.7519 51.488 40.6161 47.2246L42.5947 49.5735C38.1717 54.2818 32.003 56.9644 25.528 56.9644ZM51.0744 56.3873L44.4346 48.5109L38.4465 41.4013H43.622C44.2004 41.4013 44.6688 40.9329 44.6688 40.3545V18.0351H57.4787V40.3545C57.4787 40.9329 57.9471 41.4013 58.5255 41.4013H63.701L51.0744 56.3873Z" fill="#F1663E"></path>
                                            </g>
                                            <defs>
                                                <clipPath id="clip0_69_92">
                                                    <rect width="67" height="67" fill="white"></rect>
                                                </clipPath>
                                            </defs>
                                        </svg>