<svg xmlns="http://www.w3.org/2000/svg" width="67" height="67" viewBox="0 0 67 67" fill="none">
                                            <g clip-path="url(#clip0_69_98)">
                                                <path d="M65.0294 39.9424L61.8495 39.2873C61.7535 39.0296 61.6509 38.7745 61.5415 38.5222L63.3211 35.8189C63.6377 35.3456 63.7793 34.7768 63.7215 34.2103C63.6638 33.6439 63.4104 33.1153 63.0049 32.7157L59.7657 29.4765C59.366 29.0712 58.8374 28.8179 58.2711 28.7601C57.7047 28.7024 57.1359 28.8439 56.6626 29.1602L54.0449 30.8839C53.7578 30.7523 53.4665 30.6302 53.171 30.5175L52.5395 27.4526C52.4286 26.8942 52.1265 26.3919 51.6852 26.0322C51.2439 25.6726 50.6909 25.478 50.1216 25.4822H48.2086V13.2861C48.2086 10.1454 45.5877 7.26653 40.8281 5.18037C36.3436 3.2146 30.4041 2.13135 24.1043 2.13135C17.8045 2.13135 11.8644 3.21395 7.38047 5.17972C2.62085 7.26588 0 10.1445 0 13.2854V53.7147C0 56.8553 2.62085 59.7342 7.38047 61.8204C11.8649 63.7861 17.8045 64.8694 24.1043 64.8694C31.429 64.8694 38.3941 63.3485 42.9034 60.7841L43.1229 61.8497C43.2337 62.4081 43.5359 62.9104 43.9772 63.2701C44.4185 63.6297 44.9715 63.8243 45.5408 63.8202H50.1208C50.6902 63.8243 51.2431 63.6297 51.6845 63.27C52.1258 62.9103 52.4279 62.408 52.5387 61.8495L53.2465 58.4146C53.4104 58.3508 53.5732 58.284 53.735 58.2144L56.6624 60.1416C57.1356 60.458 57.7045 60.5996 58.2709 60.5418C58.8372 60.4841 59.3658 60.2306 59.7654 59.8252L63.0045 56.5863C63.41 56.1866 63.6635 55.658 63.7212 55.0916C63.779 54.5252 63.6374 53.9563 63.3209 53.4831L61.4496 50.6413C61.5391 50.4438 61.6242 50.2448 61.7048 50.0442L65.0286 49.3594C65.5873 49.2487 66.0899 48.9466 66.4497 48.5051C66.8096 48.0637 67.0042 47.5105 67 46.941V42.3609C67.0043 41.7915 66.8098 41.2384 66.4501 40.7969C66.0904 40.3554 65.588 40.0532 65.0294 39.9424ZM24.1043 4.22497C37.2705 4.22497 46.1148 8.90973 46.1148 13.2854C46.1148 17.6611 37.2706 22.3458 24.1043 22.3458C10.9423 22.3458 2.09951 17.6638 2.09375 13.2895V13.2829C2.09715 8.90803 10.9406 4.22497 24.1043 4.22497ZM7.38047 21.3911C11.8649 23.3569 17.8045 24.4401 24.1043 24.4401C30.4041 24.4401 36.3441 23.3574 40.8281 21.3911C43.092 20.3989 44.8701 19.2272 46.1148 17.9335V25.4818H45.541C44.9717 25.4776 44.4187 25.6721 43.9774 26.0318C43.536 26.3915 43.2339 26.8938 43.123 27.4522L42.4915 30.517C42.1968 30.6299 41.9055 30.752 41.6176 30.8834L38.9994 29.1597C38.5261 28.8432 37.9573 28.7017 37.3909 28.7594C36.8245 28.8172 36.296 29.0706 35.8963 29.4761L32.6574 32.7151C32.3366 33.0314 32.1096 33.4302 32.0013 33.8674C31.893 34.3046 31.9077 34.7633 32.0438 35.1927C29.4188 35.6179 26.7636 35.8283 24.1044 35.8218C10.9412 35.8218 2.09781 31.1388 2.09388 26.7641V17.9337C3.33809 19.2272 5.1166 20.3989 7.38047 21.3911ZM7.38047 34.8675C11.8649 36.8334 17.8045 37.9165 24.1043 37.9165C27.1523 37.9249 30.1947 37.6568 33.1943 37.1158L34.1208 38.5233C34.0111 38.7754 33.9086 39.0302 33.8131 39.2877L30.6333 39.9429C30.0748 40.0537 29.5725 40.3558 29.2128 40.7972C28.8531 41.2385 28.6585 41.7915 28.6627 42.3608V46.9409C28.6602 47.3453 28.7582 47.7441 28.9477 48.1014C29.1373 48.4587 29.4125 48.7634 29.7488 48.9882C27.8746 49.1973 25.9901 49.301 24.1043 49.2987C10.9398 49.2987 2.09558 44.6148 2.09375 40.2393V31.4101C3.33796 32.7038 5.1166 33.8755 7.38047 34.8675ZM42.3109 58.7036C38.142 61.253 31.3357 62.775 24.1042 62.775C10.9381 62.775 2.09362 58.0902 2.09362 53.7145V44.8865C3.33783 46.1802 5.11647 47.3519 7.38034 48.3441C11.8648 50.3098 17.8043 51.3931 24.1042 51.3931C27.4653 51.4064 30.8191 51.0788 34.1141 50.4153C34.1468 50.4908 34.1771 50.5672 34.211 50.6421L32.3407 53.4823C32.0242 53.9555 31.8827 54.5243 31.9404 55.0907C31.9981 55.6571 32.2515 56.1857 32.657 56.5853L35.896 59.8244C36.2957 60.2299 36.8243 60.4833 37.3907 60.5411C37.9571 60.5989 38.5259 60.4573 38.9992 60.1408L41.9264 58.2136C42.0882 58.2834 42.251 58.3501 42.4151 58.4138L42.4594 58.6292C42.408 58.65 42.3583 58.6748 42.3109 58.7036ZM64.9062 46.941C64.9086 47.0279 64.8797 47.1128 64.8248 47.1802C64.7699 47.2476 64.6926 47.2931 64.607 47.3083L60.7197 48.1092C60.5433 48.1455 60.3793 48.2267 60.2435 48.3449C60.1077 48.4631 60.0047 48.6144 59.9445 48.784C59.7658 49.2859 59.556 49.7762 59.3163 50.252C59.2335 50.4164 59.1955 50.5998 59.2062 50.7836C59.2168 50.9674 59.2758 51.1451 59.377 51.2989L61.5726 54.6338C61.6223 54.7051 61.6448 54.7919 61.636 54.8783C61.6272 54.9648 61.5876 55.0452 61.5245 55.1049L58.2854 58.344C58.2256 58.407 58.1452 58.4465 58.0588 58.4553C57.9723 58.4641 57.8856 58.4416 57.8143 58.392L54.4044 56.1472C54.2536 56.048 54.0798 55.9894 53.8997 55.9772C53.7196 55.965 53.5394 55.9995 53.3766 56.0775C52.929 56.2919 52.4694 56.4801 52 56.6412C51.8278 56.7003 51.6741 56.8032 51.5538 56.9398C51.4336 57.0764 51.351 57.242 51.3143 57.4202L50.4888 61.4262C50.4736 61.5118 50.4281 61.5892 50.3607 61.6441C50.2933 61.699 50.2084 61.728 50.1215 61.7256H45.5414C45.4545 61.728 45.3696 61.6991 45.3022 61.6442C45.2347 61.5892 45.1893 61.512 45.174 61.4263L44.3482 57.4204C44.3115 57.2421 44.229 57.0764 44.1087 56.9398C43.9884 56.8032 43.8346 56.7002 43.6624 56.6412C43.1931 56.4804 42.7335 56.2925 42.2859 56.0785C42.1231 56.0005 41.9429 55.9659 41.7627 55.9781C41.5826 55.9903 41.4087 56.0489 41.2579 56.1481L37.8485 58.3929C37.7772 58.4425 37.6904 58.465 37.604 58.4562C37.5176 58.4473 37.4372 58.4079 37.3774 58.3449L34.1374 55.1049C34.0743 55.0452 34.0348 54.9647 34.026 54.8783C34.0172 54.7918 34.0397 54.7051 34.0894 54.6338L36.2846 51.2993C36.3858 51.1455 36.4448 50.9678 36.4554 50.784C36.4661 50.6002 36.4281 50.4168 36.3453 50.2524C36.1056 49.7763 35.8958 49.2857 35.7171 48.7835C35.6569 48.6139 35.5539 48.4627 35.4181 48.3445C35.2823 48.2263 35.1184 48.1451 34.9421 48.1088L31.0555 47.3079C30.97 47.2927 30.8927 47.2472 30.8377 47.1798C30.7828 47.1124 30.7539 47.0275 30.7563 46.9406V42.3605C30.7539 42.2736 30.7828 42.1888 30.8378 42.1214C30.8927 42.054 30.97 42.0086 31.0555 41.9933L34.8181 41.2181C34.9995 41.1809 35.1677 41.0962 35.3056 40.9728C35.4435 40.8493 35.5462 40.6915 35.6033 40.5154C35.784 39.9587 36.0026 39.415 36.2576 38.8882C36.3366 38.725 36.3718 38.5442 36.3599 38.3634C36.348 38.1825 36.2893 38.0079 36.1897 37.8565L34.0889 34.6676C34.0392 34.5963 34.0167 34.5095 34.0255 34.4231C34.0343 34.3366 34.0739 34.2562 34.137 34.1965L37.3759 30.9574C37.4357 30.8944 37.5161 30.8549 37.6026 30.8461C37.689 30.8373 37.7757 30.8598 37.847 30.9094L40.9615 32.9593C41.1158 33.0609 41.2943 33.1199 41.4788 33.1302C41.6633 33.1405 41.8472 33.1018 42.0119 33.018C42.5668 32.7358 43.1414 32.4944 43.7314 32.2956C43.9049 32.2373 44.0601 32.1345 44.1814 31.9974C44.3028 31.8604 44.3861 31.6939 44.4231 31.5146L45.1729 27.875C45.1882 27.7894 45.2337 27.7122 45.3011 27.6572C45.3685 27.6023 45.4534 27.5734 45.5404 27.5758H50.1204C50.2074 27.5734 50.2922 27.6023 50.3596 27.6573C50.427 27.7122 50.4725 27.7895 50.4878 27.875L51.2377 31.5148C51.2747 31.694 51.358 31.8605 51.4793 31.9975C51.6007 32.1346 51.7558 32.2374 51.9293 32.2957C52.5192 32.4944 53.0939 32.7358 53.6488 33.018C53.8135 33.1018 53.9974 33.1405 54.1819 33.1302C54.3664 33.1199 54.5449 33.0609 54.6992 32.9593L57.8137 30.909C57.8849 30.8593 57.9717 30.8368 58.0581 30.8456C58.1446 30.8544 58.225 30.8939 58.2848 30.9569L61.5239 34.1961C61.587 34.2559 61.6265 34.3363 61.6353 34.4227C61.6441 34.5092 61.6217 34.5959 61.572 34.6672L59.4731 37.8552C59.3734 38.0066 59.3148 38.1813 59.3029 38.3621C59.291 38.543 59.3263 38.7239 59.4053 38.887C59.6603 39.4141 59.8789 39.958 60.0596 40.5149C60.1167 40.691 60.2194 40.8488 60.3573 40.9722C60.4953 41.0957 60.6635 41.1803 60.8448 41.2176L64.6068 41.9927C64.6925 42.0079 64.7699 42.0533 64.8249 42.1208C64.8798 42.1883 64.9087 42.2733 64.9062 42.3603V46.941ZM47.8311 35.6128C46.0435 35.6127 44.2961 36.1428 42.8098 37.1359C41.3235 38.129 40.1651 39.5405 39.481 41.192C38.7969 42.8434 38.6179 44.6607 38.9667 46.4139C39.3154 48.1671 40.1762 49.7775 41.4402 51.0415C42.7041 52.3055 44.3146 53.1663 46.0678 53.515C47.8209 53.8637 49.6382 53.6847 51.2897 53.0006C52.9411 52.3166 54.3527 51.1581 55.3458 49.6718C56.3388 48.1855 56.8689 46.4381 56.8689 44.6506C56.8661 42.2544 55.9131 39.9572 54.2187 38.2629C52.5244 36.5686 50.2272 35.6155 47.8311 35.6128ZM47.8311 51.5948C46.4576 51.5948 45.115 51.1875 43.973 50.4245C42.8311 49.6615 41.941 48.577 41.4154 47.3081C40.8898 46.0392 40.7522 44.643 41.0202 43.2959C41.2881 41.9489 41.9495 40.7115 42.9206 39.7403C43.8918 38.7692 45.1291 38.1078 46.4761 37.8398C47.8232 37.5719 49.2194 37.7094 50.4883 38.235C51.7572 38.7606 52.8418 39.6506 53.6048 40.7926C54.3678 41.9345 54.7751 43.2771 54.7751 44.6506C54.773 46.4916 54.0408 48.2567 52.739 49.5585C51.4372 50.8603 49.6721 51.5926 47.8311 51.5948Z" fill="#F1663E"></path>
                                            </g>
                                            <defs>
                                                <clipPath id="clip0_69_98">
                                                    <rect width="67" height="67" fill="white"></rect>
                                                </clipPath>
                                            </defs>
                                        </svg>