<svg width="82" height="82" viewBox="0 0 82 82" fill="none" xmlns="http://www.w3.org/2000/svg">
<g clip-path="url(#clip0_65_4621)">
<path d="M23.6269 35.0276H76.3958C77.9436 35.0276 79.3395 35.6586 80.3536 36.6721V36.6817C81.3671 37.6958 81.9988 39.0917 81.9988 40.6299V76.3966C81.9988 77.9341 81.3671 79.3396 80.3536 80.3531C79.3395 81.3678 77.9436 81.9982 76.3958 81.9982H23.6269C22.0888 81.9982 20.6833 81.3678 19.6698 80.3531C18.6557 79.3396 18.0247 77.9431 18.0247 76.3966V40.6299C18.0247 39.0917 18.6557 37.6862 19.6698 36.6721C20.6839 35.6586 22.0888 35.0276 23.6269 35.0276ZM76.3958 37.5888H23.6269C22.7909 37.5888 22.035 37.9354 21.484 38.4863C20.9325 39.0379 20.5859 39.7938 20.5859 40.6299V76.3966C20.5859 77.2326 20.9325 77.9969 21.484 78.5484C22.0343 79.0987 22.7909 79.437 23.6269 79.437H76.3958C77.2319 79.437 77.9961 79.0994 78.5477 78.5484C79.0986 77.9969 79.4375 77.232 79.4375 76.3966V40.6299C79.4375 39.7938 79.0993 39.0296 78.5477 38.478V38.487C77.9961 37.936 77.2319 37.5888 76.3958 37.5888Z" fill="#F1663E"/>
<path d="M39.3138 24.3477H60.7183C61.9368 24.3477 63.0566 24.8454 63.8574 25.6545C64.6575 26.4636 65.1649 27.5758 65.1649 28.7936V36.3075V37.5881H63.8837H58.4774H57.1975V36.3075V32.1466H42.8353V36.3081V37.5887H41.554H36.1478H34.8672V36.3081V28.7936C34.8672 27.5758 35.365 26.4547 36.1651 25.6545C36.9742 24.8454 38.087 24.3477 39.3138 24.3477ZM60.7177 26.9089H39.3138C38.7974 26.9089 38.3266 27.1216 37.9793 27.4688C37.6417 27.807 37.429 28.2779 37.429 28.7936V35.0269H40.2741V30.8654V29.5854H41.5547H58.4774H59.7587V30.8654V35.0275H62.6037V28.7942C62.6037 28.2779 62.3904 27.807 62.0527 27.4694H62.0431C61.7049 27.1222 61.234 26.9089 60.7177 26.9089Z" fill="#F1663E"/>
<path d="M14.1476 69.5046C14.8503 69.5046 15.4282 70.0728 15.4282 70.7846C15.4282 71.4867 14.8503 72.0645 14.1476 72.0645H3.84183C2.79248 72.0645 1.83219 71.6289 1.12942 70.9358V70.9268C0.435625 70.233 0 69.2733 0 68.2144V3.84119C0 2.79184 0.435625 1.83155 1.12942 1.12942C1.82258 0.435625 2.78288 0 3.84183 0H39.8648C40.4164 0 40.9321 0.106984 41.4132 0.320312C41.8847 0.533641 42.3114 0.844344 42.6938 1.24473L52.3602 11.587C52.3865 11.6139 52.4044 11.6402 52.4313 11.6671C52.7414 12.0136 52.9643 12.3967 53.1245 12.7965C53.2846 13.2327 53.3737 13.6946 53.3737 14.1841V20.4622C53.3737 21.1733 52.7958 21.7428 52.0931 21.7428C51.382 21.7428 50.8035 21.1733 50.8035 20.4622V14.1841C50.8035 14.006 50.7862 13.8465 50.7324 13.7036C50.6792 13.5883 50.6171 13.4813 50.537 13.3743C50.519 13.357 50.5005 13.3481 50.4832 13.3301L40.8258 2.98787C40.6919 2.84566 40.5413 2.73867 40.3812 2.65859C40.2306 2.59645 40.0615 2.56122 39.8655 2.56122H3.84183C3.49525 2.56122 3.17494 2.70344 2.94367 2.94367L2.9347 2.9347C2.70344 3.16533 2.56122 3.49461 2.56122 3.84119V68.2144C2.56122 68.5699 2.70344 68.8903 2.9347 69.1215L2.94367 69.1305C3.17494 69.3534 3.49461 69.5046 3.84183 69.5046H14.1476Z" fill="#F1663E"/>
<path d="M45.3697 58.3711L23.3963 54.1994C21.9113 53.9239 20.541 53.275 19.5551 52.2878C18.6115 51.3454 18.0247 50.1096 18.0247 48.624H20.5859C20.5859 49.38 20.8889 50.0026 21.3687 50.4831C21.9824 51.0872 22.8806 51.5056 23.8678 51.692L45.8412 55.8624L45.3697 58.3711ZM81.9981 48.624C81.9981 50.109 81.4113 51.3364 80.4683 52.2788V52.2878C79.4811 53.275 78.1121 53.9246 76.6361 54.1994L54.662 58.4057L54.1822 55.8983L76.1556 51.692C77.1518 51.4966 78.0499 51.0879 78.663 50.4831C79.1435 50.0026 79.4369 49.3793 79.4369 48.624H81.9981Z" fill="#F1663E"/>
<path d="M32.6353 11.4441C33.3464 11.4441 33.9159 12.0136 33.9159 12.7247C33.9159 13.4275 33.3464 14.0053 32.6353 14.0053H14.7619C14.0502 14.0053 13.4806 13.4275 13.4806 12.7247C13.4806 12.0136 14.0502 11.4441 14.7619 11.4441H32.6353ZM8.66058 11.4441C9.37232 11.4441 9.9508 12.0136 9.9508 12.7247C9.9508 13.4275 9.37296 14.0053 8.66058 14.0053H7.70093C6.99752 14.0053 6.41968 13.4275 6.41968 12.7247C6.41968 12.0136 6.99752 11.4441 7.70093 11.4441H8.66058Z" fill="#F1663E"/>
<path d="M24.2137 23.0671C24.9164 23.0671 25.4943 23.6443 25.4943 24.3477C25.4943 25.0588 24.9164 25.6277 24.2137 25.6277H14.7613C14.0502 25.6277 13.4806 25.0588 13.4806 24.3477C13.4806 23.645 14.0502 23.0671 14.7613 23.0671H24.2137ZM8.66122 23.0671C9.37232 23.0671 9.9508 23.6443 9.9508 24.3477C9.9508 25.0588 9.37296 25.6277 8.66122 25.6277H7.70093C6.99816 25.6277 6.41968 25.0588 6.41968 24.3477C6.41968 23.645 6.99752 23.0671 7.70093 23.0671H8.66122Z" fill="#F1663E"/>
<path d="M32.6353 17.2598C33.3464 17.2598 33.9159 17.8293 33.9159 18.5404C33.9159 19.2425 33.3464 19.821 32.6353 19.821H14.7619C14.0502 19.821 13.4806 19.2431 13.4806 18.5404C13.4806 17.8293 14.0502 17.2598 14.7619 17.2598H32.6353ZM8.66058 17.2598C9.37232 17.2598 9.9508 17.8293 9.9508 18.5404C9.9508 19.2425 9.37296 19.821 8.66058 19.821H7.70093C6.99752 19.821 6.41968 19.2431 6.41968 18.5404C6.41968 17.8293 6.99752 17.2598 7.70093 17.2598H8.66058Z" fill="#F1663E"/>
<path d="M41.1813 0.470859L52.8388 13.1251C53.3103 13.6408 53.284 14.4499 52.7587 14.9298C52.5185 15.1521 52.2084 15.268 51.8964 15.268H43.8668C42.4978 15.268 41.2614 14.7075 40.3632 13.81C40.337 13.783 40.3094 13.7568 40.2832 13.7299C39.4292 12.84 38.9045 11.6312 38.9045 10.3057V1.28061C38.9045 0.577844 39.4741 0 40.1858 0C40.5849 0 40.9411 0.186422 41.1813 0.470859ZM48.9803 12.7074L41.4658 4.56125V10.3064C41.4658 10.9464 41.715 11.5242 42.1154 11.9509C42.1326 11.9688 42.1512 11.9867 42.1692 12.0047C42.6048 12.4403 43.2089 12.7068 43.8668 12.7068L48.9803 12.7074Z" fill="#F1663E"/>
<path d="M58.2282 6.90023C58.086 7.59339 57.4108 8.03798 56.717 7.88744C56.0232 7.74458 55.5786 7.06936 55.7208 6.38389L56.2103 4.05394L56.8502 1.02186C56.9745 0.417748 57.5082 -0.0012207 58.1039 -0.0012207H60.3449H62.5858C63.2347 -0.0012207 63.769 0.479248 63.8574 1.11026L64.7998 5.59208C65.4577 5.77914 66.0983 6.00144 66.7204 6.25897C67.352 6.51714 67.9651 6.81951 68.5519 7.1488L72.4738 4.58758C72.9805 4.25829 73.6474 4.33837 74.0651 4.7567H74.0747L75.6577 6.33969C75.675 6.36659 75.7019 6.38453 75.7205 6.41079L77.2407 7.93164C77.6847 8.36726 77.7301 9.06106 77.3836 9.55883L74.8486 13.4442C75.1862 14.0317 75.4803 14.6447 75.7468 15.2764C75.996 15.8985 76.2183 16.5391 76.4047 17.197L80.9755 18.1663C81.6072 18.2905 82.0339 18.8601 81.9986 19.4821V21.6532V23.8941C81.9986 24.543 81.5188 25.0857 80.8871 25.1657L76.4053 26.1081C76.2189 26.775 75.996 27.4156 75.7474 28.0287C75.3739 28.9268 74.9293 29.7802 74.4226 30.5726C74.0497 31.1767 73.2579 31.3548 72.6532 30.9724C72.0574 30.5899 71.88 29.7987 72.2618 29.2023C72.698 28.5181 73.0715 27.7974 73.3829 27.0511C73.6852 26.3214 73.9248 25.5745 74.1029 24.8102C74.183 24.3035 74.5738 23.8851 75.0991 23.7698L79.4374 22.8627V21.6532H79.4464V20.4527L75.0978 19.5366C74.6269 19.4392 74.2266 19.074 74.1106 18.5673C73.9415 17.7761 73.6929 17.0112 73.3816 16.2559C73.0702 15.509 72.6967 14.7882 72.2605 14.1041C72.0029 13.6947 71.994 13.1611 72.2694 12.7254L74.6981 9.00853L73.9146 8.21736C73.8883 8.20006 73.871 8.18148 73.8435 8.15458L72.9902 7.30126L69.3527 9.67542C68.935 9.99509 68.3565 10.031 67.8953 9.73756C67.2104 9.30194 66.4904 8.92845 65.7434 8.61711C65.0137 8.31473 64.2584 8.0745 63.4935 7.89704C62.9958 7.81697 62.5685 7.43451 62.4621 6.90087L61.5447 2.56064H60.3449H59.1347L58.717 4.57028L58.2282 6.90023ZM60.3449 13.721C59.6331 13.721 59.0636 13.1515 59.0636 12.4404C59.0636 11.7293 59.6331 11.1597 60.3449 11.1597C63.243 11.1597 65.8664 12.334 67.7697 14.2367C69.664 16.131 70.8377 18.7544 70.8377 21.6532C70.8377 22.4181 70.7576 23.174 70.5974 23.8941C70.4373 24.6315 70.197 25.3438 69.887 26.028C69.5929 26.6686 68.837 26.9531 68.188 26.6597C67.548 26.3656 67.2719 25.6097 67.566 24.9697C67.7966 24.4719 67.9747 23.9293 68.099 23.3598C68.2149 22.8089 68.2771 22.2394 68.2771 21.6525C68.2771 19.4648 67.3879 17.4814 65.9561 16.0413C64.5153 14.6108 62.5319 13.721 60.3449 13.721Z" fill="#F1663E"/>
<path d="M45.7879 48.6606H54.2442C54.9117 48.6606 55.5158 48.9361 55.9521 49.3711L55.961 49.3801C56.3973 49.817 56.6721 50.4301 56.6721 51.0969V60.4699C56.6721 62.3015 55.9258 63.9645 54.7157 65.1734C53.5158 66.3835 51.8438 67.1305 50.0116 67.1305C48.1794 67.1305 46.5163 66.3835 45.3075 65.1734C44.1063 63.9645 43.3503 62.3021 43.3503 60.4699V51.0969C43.3503 50.4301 43.6265 49.8157 44.071 49.3801V49.3711C44.5156 48.9361 45.121 48.6606 45.7879 48.6606ZM54.1116 51.2219H45.9212V60.4699C45.9212 61.5897 46.3747 62.6218 47.1217 63.3604C47.8687 64.1074 48.8917 64.5693 50.0116 64.5693C51.1416 64.5693 52.1634 64.1074 52.9104 63.3604C53.6484 62.6224 54.1116 61.5897 54.1116 60.4699V51.2219Z" fill="#F1663E"/>
<path d="M50.0111 61.5808C50.7183 61.5808 51.2917 61.0074 51.2917 60.3001C51.2917 59.5929 50.7183 59.0195 50.0111 59.0195C49.3038 59.0195 48.7305 59.5929 48.7305 60.3001C48.7305 61.0074 49.3038 61.5808 50.0111 61.5808Z" fill="#F1663E"/>
</g>
<defs>
<clipPath id="clip0_65_4621">
<rect width="82" height="82" fill="white"/>
</clipPath>
</defs>
</svg>
