<svg xmlns="http://www.w3.org/2000/svg" width="67" height="67" viewBox="0 0 67 67" fill="none">
                                            <g clip-path="url(#clip0_69_119)">
                                                <path d="M46.3771 45.0685H42.3611L40.275 44.14V41.607C43.1959 39.9978 45.4874 37.3822 46.6798 34.2307H48.4694C52.7311 34.2307 56.1983 30.7635 56.1983 26.5018C56.1983 23.7499 54.7516 21.3309 52.5798 19.9612V19.0798C52.5799 8.55912 44.0207 0 33.5 0C22.9793 0 14.42 8.55912 14.42 19.08V19.9606C12.2478 21.3303 10.8006 23.7495 10.8006 26.5018C10.8006 30.7635 14.2679 34.2307 18.5296 34.2307H20.3201C21.5125 37.3822 23.804 39.9978 26.7249 41.607V44.1296L24.6153 45.0684H20.6228C9.25136 45.0685 0 54.32 0 65.6914C0 66.414 0.585857 67 1.30859 67H27.6113C28.3341 67 28.9199 66.414 28.9199 65.6914C28.9199 64.9688 28.3341 64.3828 27.6113 64.3828H2.66417C3.31663 55.3394 10.6779 48.1259 19.7827 47.7056C19.7793 47.7166 19.7746 47.727 19.7714 47.738C19.6653 48.111 19.7301 48.5117 19.9481 48.8323L26.1384 57.9328C26.3577 58.2552 26.7093 58.463 27.0974 58.4996C27.1385 58.5034 27.1796 58.5054 27.2206 58.5054C27.5659 58.5054 27.8992 58.3686 28.1458 58.1221L33.4884 52.7795L38.8308 58.1221C39.0774 58.3686 39.4108 58.5054 39.756 58.5054C39.7968 58.5054 39.8379 58.5034 39.879 58.4996C40.2673 58.463 40.6189 58.2552 40.8382 57.9328L47.0286 48.8323C47.2466 48.5118 47.3113 48.1108 47.2053 47.738C47.202 47.7266 47.1973 47.716 47.1938 47.7048C56.3094 48.1137 63.6828 55.3318 64.3358 64.3829H39.3887C38.6661 64.3829 38.0801 64.9689 38.0801 65.6915C38.0801 66.4141 38.6661 67.0001 39.3887 67.0001H65.6914C66.414 67.0001 67 66.4141 67 65.6915C67 54.32 57.7486 45.0685 46.3771 45.0685ZM44.942 20.3639C42.2534 19.9948 39.7305 18.9236 37.5869 17.2276C37.117 16.8557 36.4542 16.8508 35.9785 17.2157C33.1674 19.3726 29.8045 20.5126 26.2538 20.5126C24.8287 20.5126 23.4236 20.3227 22.0625 19.9538V19.2885C22.0625 12.9822 27.1931 7.85156 33.4995 7.85156C39.8059 7.85156 44.9366 12.9822 44.9366 19.2885C44.9367 19.2885 44.9392 20.3289 44.942 20.3639ZM48.4695 31.6137H47.5853V21.39H48.4695C51.2882 21.39 53.5813 23.6831 53.5813 26.5019C53.5813 29.3205 51.2882 31.6137 48.4695 31.6137ZM33.5 2.61719C42.5237 2.61719 49.8736 9.91508 49.9607 18.9186C49.4779 18.8239 48.9796 18.7728 48.4694 18.7728H47.5433C47.2709 11.2614 41.0764 5.23438 33.4995 5.23438C25.9226 5.23438 19.7281 11.2614 19.4556 18.7728H18.5297C18.0199 18.7728 17.5219 18.8237 17.0393 18.9185C17.1265 9.91508 24.4765 2.61719 33.5 2.61719ZM19.4138 31.6137H18.5297C15.711 31.6137 13.4179 29.3205 13.4179 26.5018C13.4179 23.6831 15.711 21.3899 18.5297 21.3899H19.4139L19.4138 31.6137ZM22.031 29.2608V22.6472C23.4097 22.9675 24.8236 23.1298 26.2538 23.1298C30.0511 23.1298 33.6642 22.009 36.7643 19.8786C39.2009 21.596 42.0042 22.6622 44.968 23.0043V29.3312C44.9605 30.5579 44.7595 31.7394 44.394 32.8469H38.145C37.6043 31.3179 36.1449 30.2192 34.4333 30.2192H32.6815C30.511 30.2192 28.7454 31.985 28.7454 34.1555C28.7454 36.3259 30.511 38.0917 32.6815 38.0917H34.4333C36.1451 38.0917 37.6044 36.993 38.145 35.4641H43.1422C41.0989 38.6297 37.5402 40.7297 33.5 40.7297C27.176 40.7297 22.031 35.5849 22.031 29.2608ZM35.7525 34.1555C35.7525 34.8829 35.1609 35.4745 34.4334 35.4745H32.6816C31.9543 35.4745 31.3627 34.8829 31.3627 34.1555C31.3627 33.428 31.9543 32.8364 32.6816 32.8364H34.4334C35.1607 32.8364 35.7525 33.428 35.7525 34.1555ZM33.5 43.3469C34.9468 43.3469 36.3431 43.1273 37.6578 42.7204V44.9086L33.4884 49.078L29.3421 44.9319V42.7204C30.6569 43.1273 32.0532 43.3469 33.5 43.3469ZM27.4131 55.1534L22.9929 48.6552L27.4018 46.6931L31.6376 50.9289L27.4131 55.1534ZM39.5635 55.1534L35.339 50.9289L39.5748 46.6931L43.9838 48.6552L39.5635 55.1534Z" fill="#F1663E"></path>
                                                <path d="M33.5 64.3828C33.1558 64.3828 32.8182 64.5227 32.5748 64.7662C32.3314 65.0096 32.1914 65.3472 32.1914 65.6914C32.1914 66.0356 32.3313 66.3732 32.5748 66.6165C32.8182 66.8598 33.1558 67 33.5 67C33.8442 67 34.1818 66.86 34.425 66.6165C34.6686 66.3732 34.8086 66.0356 34.8086 65.6914C34.8086 65.3472 34.6686 65.0096 34.425 64.7662C34.1818 64.5227 33.8442 64.3828 33.5 64.3828Z" fill="#F1663E"></path>
                                            </g>
                                            <defs>
                                                <clipPath id="clip0_69_119">
                                                    <rect width="67" height="67" fill="white"></rect>
                                                </clipPath>
                                            </defs>
                                        </svg>