<svg width="82" height="82" viewBox="0 0 82 82" fill="none" xmlns="http://www.w3.org/2000/svg">
<g clip-path="url(#clip0_65_4649)">
<path d="M13.4307 39.452C12.9404 39.452 12.4535 39.2467 12.1081 38.8463C11.4793 38.1167 11.5607 37.0148 12.2908 36.3857L47.2693 6.23628C47.7864 5.79121 48.5156 5.68807 49.1349 5.9717C49.7551 6.2563 50.1529 6.87563 50.1529 7.55789V18.4323L71.7927 -0.00340658C72.5245 -0.628336 73.6268 -0.540571 74.2521 0.193425C74.8765 0.926941 74.7888 2.02802 74.0552 2.65278L49.5395 23.5388C49.0207 23.9805 48.2949 24.0793 47.6764 23.7947C47.0588 23.5093 46.6636 22.8908 46.6636 22.2106V11.3651L14.5687 39.0292C14.2396 39.3129 13.8341 39.452 13.4307 39.452Z" fill="#F1663E"/>
<path d="M72.924 14.581C71.9605 14.581 71.1792 13.7998 71.1792 12.8363V3.06932H60.9352C59.9717 3.06932 59.1904 2.28808 59.1904 1.32458C59.1904 0.361076 59.9717 -0.420166 60.9352 -0.420166H72.9238C73.8873 -0.420166 74.6686 0.361076 74.6686 1.32458V12.8363C74.6686 13.7998 73.8875 14.581 72.924 14.581Z" fill="#F1663E"/>
<path d="M1.9049 44.4419C2.86849 44.4419 3.64964 43.6607 3.64964 42.6971C3.64964 41.7335 2.86849 40.9524 1.9049 40.9524C0.941304 40.9524 0.160156 41.7335 0.160156 42.6971C0.160156 43.6607 0.941304 44.4419 1.9049 44.4419Z" fill="#F1663E"/>
<path d="M80.4154 82.42H1.9049C0.941399 82.42 0.160156 81.6388 0.160156 80.6753V50.548C0.160156 49.5845 0.941399 48.8032 1.9049 48.8032C2.8684 48.8032 3.64964 49.5845 3.64964 50.548V78.9305H80.4156C81.3791 78.9305 82.1603 79.7118 82.1603 80.6753C82.1603 81.6388 81.3789 82.42 80.4154 82.42Z" fill="#F1663E"/>
<path d="M1.9049 36.5907C0.941399 36.5907 0.160156 35.8096 0.160156 34.8461V2.16475C0.160156 1.20125 0.941399 0.420166 1.9049 0.420166C2.8684 0.420166 3.64948 1.20125 3.64948 2.16475V34.8461C3.64948 35.8096 2.8684 36.5907 1.9049 36.5907Z" fill="#F1663E"/>
<path d="M29.5707 73.3379H15.151C14.1875 73.3379 13.4062 72.5567 13.4062 71.5932V47.1158C13.4062 46.1523 14.1875 45.3711 15.151 45.3711H29.5707C30.5342 45.3711 31.3154 46.1523 31.3154 47.1158V71.5933C31.3152 72.5568 30.5342 73.3379 29.5707 73.3379ZM16.8957 69.8486H27.8259V48.8604H16.8957V69.8486Z" fill="#F1663E"/>
<path d="M53.7154 73.3379H39.2958C38.3323 73.3379 37.551 72.5566 37.551 71.5931V32.6608C37.551 31.6973 38.3323 30.916 39.2958 30.916H53.7154C54.6789 30.916 55.4602 31.6973 55.4602 32.6608V71.5931C55.46 72.5568 54.6789 73.3379 53.7154 73.3379ZM41.0405 69.8486H51.9707V34.4055H41.0405V69.8486Z" fill="#F1663E"/>
<path d="M77.8598 73.3379H63.4398C62.4763 73.3379 61.6951 72.5567 61.6951 71.5932V19.7538C61.6951 18.7903 62.4763 18.009 63.4398 18.009H77.8598C78.8233 18.009 79.6045 18.7903 79.6045 19.7538V71.5933C79.6045 72.5568 78.8233 73.3379 77.8598 73.3379ZM65.1844 69.8486H76.1151V21.4984H65.1844V69.8486Z" fill="#F1663E"/>
</g>
<defs>
<clipPath id="clip0_65_4649">
<rect width="82" height="82" fill="white"/>
</clipPath>
</defs>
</svg>
