<svg width="82" height="82" viewBox="0 0 82 82" fill="none" xmlns="http://www.w3.org/2000/svg">
<g clip-path="url(#clip0_65_4643)">
<path d="M80.7988 69.4458H78.6736V26.2923C78.6736 23.1316 76.1014 20.5603 72.94 20.5603H70.1185C70.4269 19.9149 70.597 19.199 70.597 18.4551C70.597 16.6437 69.603 14.9915 68.0025 14.1432L52.296 5.82305C51.7098 5.51235 50.9827 5.73593 50.6723 6.32226C50.3618 6.90843 50.5854 7.63538 51.1715 7.94592L66.8777 16.2659C67.7024 16.7029 68.1947 17.5213 68.1947 18.4551C68.1947 19.3888 67.7024 20.207 66.878 20.6439L51.61 28.7321L41.9033 17.6631C41.4659 17.1642 40.7069 17.1145 40.2082 17.5519C39.7095 17.9893 39.6597 18.7483 40.097 19.247L49.4284 29.888L43.6512 32.9484C41.9912 33.8265 40.0093 33.8265 38.3497 32.9487L15.1223 20.6442C14.2978 20.2072 13.8053 19.3888 13.8053 18.4552C13.8053 17.5217 14.2976 16.7033 15.122 16.2662L38.3489 3.96172C40.009 3.08342 41.9909 3.08342 43.6503 3.9614L46.9751 5.72312C47.5613 6.03382 48.2884 5.8104 48.5989 5.22423C48.9095 4.63806 48.6861 3.91095 48.1 3.6004L44.7746 1.83837C42.411 0.587706 39.5887 0.587705 37.225 1.83853L13.9972 14.1435C12.3971 14.9917 11.4031 16.6439 11.4031 18.4552C11.4031 19.1991 11.5732 19.9149 11.8817 20.5605H9.06004C5.89855 20.5605 3.32645 23.1318 3.32645 26.2925V69.4459H1.20117C0.537805 69.4459 0 69.9837 0 70.6471V73.3094C0 77.6049 3.49461 81.0997 7.79016 81.0997H74.2097C78.5052 81.0997 82 77.6051 82 73.3094V70.6471C82 69.9836 81.4622 69.4458 80.7988 69.4458ZM51.3326 48.6069L52.8988 51.3196C53.2225 51.8803 53.0066 52.3753 52.8988 52.5621C52.791 52.7488 52.4702 53.1833 51.8227 53.1833H50.8424C50.1949 53.1833 49.8743 52.7488 49.7663 52.5621C49.6584 52.3752 49.4426 51.8803 49.7663 51.3196L51.3326 48.6069ZM52.5338 30.9615L57.5041 28.3285V33.0985C57.5041 36.5242 55.5681 39.5954 52.5338 41.0537V30.9615ZM40.9998 36.0098C42.2963 36.0098 43.5931 35.697 44.775 35.0717L50.1315 32.2343V41.9831C43.5686 44.1571 36.3076 43.913 29.9018 41.2506C26.6178 39.8857 24.4959 36.6858 24.4959 33.0986V28.3284L37.2256 35.0719C38.4072 35.6973 39.7034 36.0098 40.9998 36.0098ZM5.72879 26.2923C5.72879 24.4563 7.22321 22.9627 9.06004 22.9627H14.3671L20.4135 26.1658H10.1331C9.46972 26.1658 8.93191 26.7036 8.93191 27.367V65.0421C8.93191 65.7055 9.46972 66.2433 10.1331 66.2433H16.4737C17.137 66.2433 17.6748 65.7055 17.6748 65.0421C17.6748 64.3787 17.137 63.8409 16.4737 63.8409H11.3343V28.5681H22.0936V33.0985C22.0936 37.6596 24.7965 41.7301 28.98 43.4689C32.7994 45.0564 36.8997 45.8501 41.0002 45.8501C44.0838 45.8501 47.1673 45.4009 50.1316 44.503V45.8826L47.686 50.1184C47.0272 51.2595 47.0272 52.6222 47.686 53.7633C48.3449 54.9044 49.5248 55.5857 50.8426 55.5857H51.8229C53.1406 55.5857 54.3205 54.9044 54.9794 53.7633C55.6383 52.6222 55.6383 51.2595 54.9794 50.1184L52.5338 45.8826V43.6638C52.6962 43.5996 52.8588 43.536 53.0202 43.4689C57.2035 41.7301 59.9064 37.6596 59.9064 33.0985V28.5681H70.6657V63.8409H21.2784C20.615 63.8409 20.0772 64.3787 20.0772 65.0421C20.0772 65.7055 20.615 66.2433 21.2784 66.2433H71.8669C72.5303 66.2433 73.0681 65.7055 73.0681 65.0421V27.367C73.0681 26.7036 72.5303 26.1658 71.8669 26.1658H61.5863L67.6327 22.9627H72.9398C74.7766 22.9627 76.271 24.4563 76.271 26.2923V69.4458H5.72879V26.2923ZM48.428 71.8487C47.9843 73.1404 46.757 74.0714 45.3167 74.0714H36.6835C35.243 74.0714 34.0159 73.1404 33.572 71.8487H48.428ZM79.5977 73.3092C79.5977 76.2801 77.1806 78.6972 74.2097 78.6972H7.79016C4.81926 78.6972 2.40234 76.2801 2.40234 73.3092V71.8481H4.51529C4.51945 71.8481 4.52345 71.8487 4.52762 71.8487H31.0939C31.5945 74.4788 33.9097 76.4737 36.6835 76.4737H45.3167C48.0903 76.4737 50.4055 74.4787 50.9061 71.8487H77.4724C77.4765 71.8487 77.4806 71.8481 77.4847 71.8481H79.5977V73.3092Z" fill="#F1663E"/>
<path d="M41.3633 59.4365C41.3633 58.7732 40.8255 58.2354 40.1621 58.2354H16.1155C15.4521 58.2354 14.9143 58.7732 14.9143 59.4365C14.9143 60.0999 15.4521 60.6377 16.1155 60.6377H40.1623C40.8255 60.6377 41.3633 60.0999 41.3633 59.4365Z" fill="#F1663E"/>
<path d="M16.1155 55.5859H32.1936C32.8569 55.5859 33.3947 55.0481 33.3947 54.3848C33.3947 53.7214 32.8569 53.1836 32.1936 53.1836H16.1155C15.4521 53.1836 14.9143 53.7214 14.9143 54.3848C14.9143 55.0481 15.452 55.5859 16.1155 55.5859Z" fill="#F1663E"/>
</g>
<defs>
<clipPath id="clip0_65_4643">
<rect width="82" height="82" fill="white"/>
</clipPath>
</defs>
</svg>
